<?xml version="1.0"?>
<svg viewBox="0 0 60 60" xmlns="http://www.w3.org/2000/svg">
    <defs>
        <style>.a,.b{fill:none;stroke-linecap:round;stroke-linejoin:round;stroke-width:1.5px;}.a{stroke:#1c4db8;}.b{stroke:#e82e5f;}.c{fill:#1c4db8;}.d{fill:#e82e5f;}</style>
    </defs>
    <title />
    <line class="a" x1="28.293" x2="20.952" y1="28.83" y2="22.437" />
    <polyline class="a" points="44.404 25.585 37.907 36.753 31.617 31.569" />
    <line class="a" x1="49.623" x2="46.746" y1="16.615" y2="21.56" />
    <polyline class="b" points="53.382 35.652 33.934 13.842 23.715 40.997" />
    <path class="c" d="M46.209,15.072l7,3.287a.908.908,0,0,0,1.29-.916l-.774-7.449a.909.909,0,0,0-1.409-.661L46.09,13.494A.909.909,0,0,0,46.209,15.072Z" />
    <path class="d" d="M55.683,33.028l-5.142,5.494A.885.885,0,0,0,51,39.991l7.127,1.516a.883.883,0,0,0,1.034-1.1l-1.985-7.011A.884.884,0,0,0,55.683,33.028Z" />
    <circle class="d" cx="34.202" cy="13.842" r="2.176" />
    <circle class="c" cx="38.011" cy="36.351" r="2.176" />
    <circle class="a" cx="13.2" cy="12.488" r="5.237" />
    <path class="a" d="M5.342,22.65a8.733,8.733,0,0,1,15.61-.213" />
    <path class="a" d="M8.064,13.514c3.172.866,8.264-1.026,9.323-4.166" />
    <circle class="a" cx="13.031" cy="14.057" r="11.531" />
    <path class="a" d="M5.456,54.536a8.732,8.732,0,0,1,15.61-.213" />
    <path class="a" d="M17.214,43.838c-1.055,2.508-6.323,1.916-7.256.367l0,2.034a3.374,3.374,0,0,0,3.375,3.372,3.879,3.879,0,0,0,3.879-3.88Z" />
    <circle class="a" cx="13.146" cy="45.943" r="11.531" />
    <path class="a" d="M13.315,39.137c-2.281,0-6.507,1.718-6.59,6.1A26.3,26.3,0,0,0,7.3,52.016" />
    <path class="a" d="M13.315,39.137c2.281,0,6.506,1.718,6.59,6.1a26.3,26.3,0,0,1-.575,6.781" />
</svg>